<?xml version="1.0" standalone="no"?>
<!DOCTYPE svg PUBLIC "-//W3C//DTD SVG 20010904//EN"
 "http://www.w3.org/TR/2001/REC-SVG-20010904/DTD/svg10.dtd">
<svg version="1.0" xmlns="http://www.w3.org/2000/svg"
 width="700.000000pt" height="700.000000pt" viewBox="0 0 700.000000 700.000000"
 preserveAspectRatio="xMidYMid meet">
<metadata>
Created by potrace 1.14, written by Peter Selinger 2001-2017
</metadata>
<g transform="translate(0.000000,700.000000) scale(0.100000,-0.100000)"
fill="#000000" stroke="none">
<path d="M3300 6994 c-548 -47 -930 -149 -1364 -366 -351 -174 -616 -367 -907
-657 -390 -391 -658 -815 -833 -1321 -136 -391 -190 -719 -190 -1150 0 -350
27 -572 109 -885 163 -624 478 -1163 946 -1620 570 -555 1262 -881 2074 -977
144 -16 586 -16 735 1 511 58 1002 222 1426 478 252 152 436 295 652 507 396
388 678 832 856 1346 309 888 248 1863 -168 2700 -119 238 -242 432 -415 650
-100 127 -400 426 -531 529 -534 424 -1141 674 -1820 751 -99 11 -492 21 -570
14z m843 -1244 c220 -68 386 -309 416 -603 26 -255 -48 -498 -201 -662 -56
-60 -87 -83 -156 -118 -84 -41 -88 -42 -186 -42 -119 1 -181 21 -275 90 -193
142 -307 447 -273 728 53 431 358 705 675 607z m-1477 -159 c258 -128 420
-449 401 -790 -8 -129 -26 -201 -78 -307 -236 -482 -822 -344 -995 233 -39
129 -45 331 -15 458 52 218 189 384 365 441 27 9 75 13 139 10 91 -3 103 -6
183 -45z m2689 -896 c328 -85 446 -520 251 -919 -102 -207 -279 -366 -470
-421 -43 -13 -85 -16 -156 -13 -85 3 -105 8 -164 37 -173 85 -269 265 -269
501 0 238 99 466 275 637 163 158 358 223 533 178z m-3723 -337 c241 -90 435
-299 524 -565 35 -105 44 -278 20 -373 -38 -148 -121 -255 -243 -312 -59 -28
-81 -33 -168 -36 -195 -8 -351 60 -518 225 -112 111 -187 236 -233 390 -37
122 -39 296 -5 393 51 146 143 242 277 290 84 29 249 24 346 -12z m1932 -358
c151 -38 292 -134 388 -262 30 -40 99 -147 154 -236 170 -281 192 -301 422
-386 204 -75 302 -134 402 -243 135 -147 214 -403 190 -613 -40 -344 -292
-618 -660 -717 -100 -27 -402 -24 -575 5 -305 53 -362 49 -646 -43 -261 -84
-386 -109 -554 -109 -104 0 -147 4 -215 22 -266 71 -481 255 -577 492 -42 106
-55 191 -50 330 6 146 22 214 78 329 71 145 185 247 441 395 54 31 113 72 132
92 46 47 103 159 171 334 79 203 145 326 216 404 61 66 165 143 235 173 132
56 308 69 448 33z"/>
</g>
</svg>
